HIERARCHY
ROOT hip
{
  OFFSET 0 0 0
  CHANNELS 6 Xposition Yposition Zposition Zrotation Yrotation Xrotation
  JOINT abdomen
  {
    OFFSET 0 20.6881 -0.73152
    CHANNELS 3 Zrotation Xrotation Yrotation
    JOINT chest
    {
      OFFSET 0 11.7043 -0.48768
      CHANNELS 3 Zrotation Xrotation Yrotation
      JOINT neck
      {
        OFFSET 0 22.1894 -2.19456
        CHANNELS 3 Zrotation Xrotation Yrotation
        JOINT head
        {
          OFFSET -0.24384 7.07133 1.2192
          CHANNELS 3 Zrotation Xrotation Yrotation
          JOINT leftEye
          {
            OFFSET 4.14528 8.04674 8.04672
            CHANNELS 3 Zrotation Xrotation Yrotation
            End Site
            {
              OFFSET 1 0 0
            }
          }
          JOINT rightEye
          {
            OFFSET -3.6576 8.04674 8.04672
            CHANNELS 3 Zrotation Xrotation Yrotation
            End Site
            {
              OFFSET 1 0 0
            }
          }
        }
      }
      JOINT rCollar
      {
        OFFSET -2.68224 19.2634 -4.8768
        CHANNELS 3 Zrotation Xrotation Yrotation
        JOINT rShldr
        {
          OFFSET -8.77824 -1.95073 1.46304
          CHANNELS 3 Zrotation Xrotation Yrotation
          JOINT rForeArm
          {
            OFFSET -28.1742 -1.7115 0.48768
            CHANNELS 3 Zrotation Xrotation Yrotation
            JOINT rHand
            {
              OFFSET -22.5879 0.773209 7.07136
              CHANNELS 3 Zrotation Xrotation Yrotation
              JOINT rThumb1
              {
                OFFSET -1.2192 -0.487915 3.41376
                CHANNELS 3 Zrotation Xrotation Yrotation
                JOINT rThumb2
                {
                  OFFSET -3.37035 -0.52449 3.41376
                  CHANNELS 3 Zrotation Xrotation Yrotation
                  End Site
                  {
                    OFFSET -1.78271 -1.18214 1.43049
                  }
                }
              }
              JOINT rIndex1
              {
                OFFSET -7.75947 0.938293 5.60832
                CHANNELS 3 Zrotation Xrotation Yrotation
                JOINT rIndex2
                {
                  OFFSET -2.54057 -0.884171 1.56538
                  CHANNELS 3 Zrotation Xrotation Yrotation
                  End Site
                  {
                    OFFSET -1.62519 -0.234802 1.16502
                  }
                }
              }
              JOINT rMid1
              {
                OFFSET -8.24714 1.18213 3.41376
                CHANNELS 3 Zrotation Xrotation Yrotation
                JOINT rMid2
                {
                  OFFSET -3.10165 -0.590103 1.0647
                  CHANNELS 3 Zrotation Xrotation Yrotation
                  End Site
                  {
                    OFFSET -2.48547 -0.328903 0.83742
                  }
                }
              }
              JOINT rRing1
              {
                OFFSET -8.82822 0.546677 1.51678
                CHANNELS 3 Zrotation Xrotation Yrotation
                JOINT rRing2
                {
                  OFFSET -2.60934 -0.819778 -0.0198488
                  CHANNELS 3 Zrotation Xrotation Yrotation
                  End Site
                  {
                    OFFSET -2.33842 -0.294052 0.168128
                  }
                }
              }
              JOINT rPinky1
              {
                OFFSET -8.27202 -0.0477905 -0.4584
                CHANNELS 3 Zrotation Xrotation Yrotation
                JOINT rPinky2
                {
                  OFFSET -1.82734 -0.647385 -0.700984
                  CHANNELS 3 Zrotation Xrotation Yrotation
                  End Site
                  {
                    OFFSET -1.69225 -0.51767 -0.607171
                  }
                }
              }
            }
          }
        }
      }
      JOINT lCollar
      {
        OFFSET 2.68224 19.2634 -4.8768
        CHANNELS 3 Zrotation Xrotation Yrotation
        JOINT lShldr
        {
          OFFSET 8.77824 -1.95073 1.46304
          CHANNELS 3 Zrotation Xrotation Yrotation
          JOINT lForeArm
          {
            OFFSET 28.1742 -1.7115 0.48768
            CHANNELS 3 Zrotation Xrotation Yrotation
            JOINT lHand
            {
              OFFSET 22.5879 0.773209 7.07136
              CHANNELS 3 Zrotation Xrotation Yrotation
              JOINT lThumb1
              {
                OFFSET 1.2192 -0.487915 3.41376
                CHANNELS 3 Zrotation Xrotation Yrotation
                JOINT lThumb2
                {
                  OFFSET 3.37035 -0.52449 3.41376
                  CHANNELS 3 Zrotation Xrotation Yrotation
                  End Site
                  {
                    OFFSET 1.78271 -1.18214 1.43049
                  }
                }
              }
              JOINT lIndex1
              {
                OFFSET 7.75947 0.938293 5.60832
                CHANNELS 3 Zrotation Xrotation Yrotation
                JOINT lIndex2
                {
                  OFFSET 2.54057 -0.884171 1.56538
                  CHANNELS 3 Zrotation Xrotation Yrotation
                  End Site
                  {
                    OFFSET 1.62519 -0.234802 1.16502
                  }
                }
              }
              JOINT lMid1
              {
                OFFSET 8.24714 1.18213 3.41376
                CHANNELS 3 Zrotation Xrotation Yrotation
                JOINT lMid2
                {
                  OFFSET 3.10165 -0.590103 1.0647
                  CHANNELS 3 Zrotation Xrotation Yrotation
                  End Site
                  {
                    OFFSET 2.48547 -0.328903 0.83742
                  }
                }
              }
              JOINT lRing1
              {
                OFFSET 8.82822 0.546677 1.51678
                CHANNELS 3 Zrotation Xrotation Yrotation
                JOINT lRing2
                {
                  OFFSET 2.60934 -0.819778 -0.0198488
                  CHANNELS 3 Zrotation Xrotation Yrotation
                  End Site
                  {
                    OFFSET 2.33842 -0.294052 0.168128
                  }
                }
              }
              JOINT lPinky1
              {
                OFFSET 8.27202 -0.0477905 -0.4584
                CHANNELS 3 Zrotation Xrotation Yrotation
                JOINT lPinky2
                {
                  OFFSET 1.82734 -0.647385 -0.700984
                  CHANNELS 3 Zrotation Xrotation Yrotation
                  End Site
                  {
                    OFFSET 1.69225 -0.51767 -0.607171
                  }
                }
              }
            }
          }
        }
      }
    }
  }
  JOINT rButtock
  {
    OFFSET -8.77824 4.35084 1.2192
    CHANNELS 3 Zrotation Xrotation Yrotation
    JOINT rThigh
    {
      OFFSET 0 -1.70687 -2.19456
      CHANNELS 3 Zrotation Xrotation Yrotation
      JOINT rShin
      {
        OFFSET 0 -36.8199 0.73152
        CHANNELS 3 Zrotation Xrotation Yrotation
        JOINT rFoot
        {
          OFFSET 0.73152 -45.1104 -5.12064
          CHANNELS 3 Zrotation Xrotation Yrotation
          End Site
          {
            OFFSET -1.1221 -3.69964 12.103
          }
        }
      }
    }
  }
  JOINT lButtock
  {
    OFFSET 8.77824 4.35084 1.2192
    CHANNELS 3 Zrotation Xrotation Yrotation
    JOINT lThigh
    {
      OFFSET 0 -1.70687 -2.19456
      CHANNELS 3 Zrotation Xrotation Yrotation
      JOINT lShin
      {
        OFFSET 0 -36.8199 0.73152
        CHANNELS 3 Zrotation Xrotation Yrotation
        JOINT lFoot
        {
          OFFSET -0.73152 -45.1104 -5.12064
          CHANNELS 3 Zrotation Xrotation Yrotation
          End Site
          {
            OFFSET 1.1221 -3.69964 12.103
          }
        }
      }
    }
  }
}
MOTION
Frames:	4
Frame Time:	0.00833333
-163.47 85.1237 25.5785 0.0 0.0 0.0 0.435975 -0.0238512 0.0128202 0.121276 -0.0396248 0.0210495 1.40224e-15 7.95139e-16 -1.55301e-16 4.18069e-15 9.54166e-15 -4.70561e-16 -0.0 0.0 0.0 -0.0 0.0 0.0 7.43999e-16 -2.48481e-17 4.96962e-17 1.66697e-14 2.54693e-16 -5.96354e-16 2.55886e-13 -7.21588e-14 -3.81667e-14 2.87781e-12 7.85945e-14 -2.98972e-13 6.79336e-12 9.57898e-15 -7.28347e-13 1.17251e-11 1.27222e-14 -1.27699e-12 6.80003e-12 1.11319e-14 -7.37889e-13 7.73091 5.47488 0.417314 6.79362e-12 9.34288e-15 -7.25166e-13 2.90554 0.965183 0.102902 6.80368e-12 9.93923e-15 -7.37889e-13 10.2786 0.731801 0.0259123 6.79585e-12 1.07344e-14 -7.37889e-13 2.22167 -0.733487 -0.20892 6.47541e-16 -2.52363e-17 -1.49089e-16 1.27619e-14 4.22417e-16 -2.5842e-15 2.51413e-13 7.53394e-14 -3.18055e-14 2.87789e-12 -7.55133e-14 -3.18055e-13 6.79073e-12 -8.24954e-15 -7.53791e-13 1.17287e-11 -1.90833e-14 -1.27938e-12 6.78651e-12 -7.55382e-15 -7.37889e-13 -7.73091 5.47488 -0.417314 6.78989e-12 -8.34896e-15 -7.4743e-13 -2.90554 0.965183 -0.102902 6.78586e-12 -8.44835e-15 -7.4425e-13 -10.2786 0.731801 -0.0259123 6.79645e-12 -5.96354e-15 -7.41069e-13 -2.22167 -0.733487 0.20892 -2.03217e-16 0.0 -3.88251e-19 0.651899 -4.7111 -0.0694736 -0.000843468 2.99809 0.00382435 -0.32629 1.72324 0.0697762 2.03217e-16 0.0 3.88251e-19 0.0330588 -2.68025 0.0231619 0.00579557 -0.679766 0.0505473 0.296243 3.37021 -0.0966917
-164.997 83.5746 9.30368 -178.297 0.3518 -171.894 2.74757 -1.2538 1.25971 0.0288279 -3.83065 0.52128 -1.69495 0.0127769 -0.99657 2.50521 4.19897 -3.1285 -0.0 0.0 0.0 -0.0 0.0 0.0 1.32112e-14 1.18988e-13 -2.23085e-14 18.7942 13.995 -3.19598 -5.35248 -2.71008 8.03622 0.0558962 -5.24862 -0.726514 3.62621e-10 1.08293e-10 -5.2325e-10 6.31125e-10 1.79376e-10 -8.99625e-10 3.62628e-10 1.08301e-10 -5.23257e-10 7.73091 5.47488 0.417314 3.62621e-10 1.08293e-10 -5.23246e-10 2.90554 0.965183 0.102902 3.62631e-10 1.08293e-10 -5.23257e-10 10.2786 0.731801 0.0259123 3.62622e-10 1.08294e-10 -5.23255e-10 2.22167 -0.733487 -0.20892 1.31271e-14 1.18995e-13 -2.24631e-14 -21.7167 5.01824 3.67993 4.89431 -2.37691 -7.47108 -0.0103506 2.25711 -0.316327 2.65181e-10 9.97605e-10 5.80434e-10 4.63628e-10 1.72921e-09 1.00152e-09 2.65178e-10 9.97607e-10 5.80452e-10 -7.73091 5.47488 -0.417314 2.65181e-10 9.97606e-10 5.80443e-10 -2.90554 0.965183 -0.102902 2.65176e-10 9.97606e-10 5.80442e-10 -10.2786 0.731801 -0.0259123 2.65186e-10 9.97607e-10 5.80444e-10 -2.22167 -0.733487 0.20892 -2.03217e-16 0.0 -3.88251e-19 -4.13338 -5.55871 -0.130402 0.00217128 4.09023 0.0312363 -0.98957 1.46221 0.144461 2.03217e-16 0.0 3.88251e-19 2.72984 -8.40644 -4.24444 -0.0466509 3.84804 -0.216573 2.21144 -4.49444 6.32641
-165.021 83.582 9.30934 -178.337 0.3404 -171.901 5.25375 -2.55132 2.58127 0.000609682 -7.83667 1.05755 -3.48696 0.0248277 -2.05304 5.6588 8.59914 -6.49882 -0.0 0.0 0.0 -0.0 0.0 0.0 2.77481e-14 2.45779e-13 -4.67175e-14 40.5726 28.6268 -7.27356 -10.1844 -5.3904 16.5769 -0.0320773 -10.7892 -1.51437 7.3675e-10 2.36572e-10 -1.0888e-09 1.28256e-09 3.92724e-10 -1.87213e-09 7.36758e-10 2.36586e-10 -1.08881e-09 7.73091 5.47488 0.417314 7.36749e-10 2.36572e-10 -1.0888e-09 2.90554 0.965183 0.102902 7.3676e-10 2.36572e-10 -1.08881e-09 10.2786 0.731801 0.0259123 7.36751e-10 2.36574e-10 -1.0888e-09 2.22167 -0.733487 -0.20892 2.76773e-14 2.45793e-13 -4.68231e-14 -45.3804 10.2511 7.66709 9.39594 -4.75145 -15.4034 0.00589332 4.64494 -0.652644 5.34415e-10 2.06578e-09 1.19712e-09 9.34625e-10 3.58076e-09 2.06561e-09 5.34413e-10 2.06579e-09 1.19714e-09 -7.73091 5.47488 -0.417314 5.34416e-10 2.06579e-09 1.19713e-09 -2.90554 0.965183 -0.102902 5.3441e-10 2.06579e-09 1.19712e-09 -10.2786 0.731801 -0.0259123 5.34419e-10 2.06579e-09 1.19712e-09 -2.22167 -0.733487 0.20892 -2.03217e-16 0.0 -3.88251e-19 -9.19398 -6.4546 -0.195044 0.00421473 5.24475 0.0602915 -1.69007 1.18614 0.223399 2.03217e-16 0.0 3.88251e-19 4.62949 -14.3366 -8.94008 -0.055703 8.63544 -0.503506 6.17492 -12.5231 13.3992
-165.064 83.586 9.30901 -178.466 0.3558 -171.895 7.53152 -3.70662 3.76046 0.0459388 -11.4091 1.54886 -5.08353 0.0382845 -2.98971 8.91246 12.4449 -9.58762 -0.0 0.0 0.0 -0.0 0.0 0.0 3.81455e-14 3.57015e-13 -6.7025e-14 62.357 41.3717 -12.4399 -13.8354 -7.49183 24.3022 -0.244751 -15.7355 -2.25495 1.07428e-09 3.24859e-10 -1.56829e-09 1.86993e-09 5.38102e-10 -2.69632e-09 1.07428e-09 3.2488e-10 -1.5683e-09 7.73091 5.47488 0.417314 1.07427e-09 3.24859e-10 -1.56829e-09 2.90554 0.965183 0.102902 1.07429e-09 3.24859e-10 -1.56829e-09 10.2786 0.731801 0.0259123 1.07428e-09 3.24861e-10 -1.56829e-09 2.22167 -0.733487 -0.20892 3.80862e-14 3.57035e-13 -6.7091e-14 -67.1268 14.8022 11.3799 12.8656 -6.64681 -22.5537 0.04416 6.7705 -0.954905 7.81961e-10 2.99283e-09 1.74281e-09 1.36743e-09 5.18767e-09 3.00712e-09 7.8196e-10 2.99284e-09 1.74283e-09 -7.73091 5.47488 -0.417314 7.81963e-10 2.99283e-09 1.74282e-09 -2.90554 0.965183 -0.102902 7.81957e-10 2.99283e-09 1.74282e-09 -10.2786 0.731801 -0.0259123 7.81964e-10 2.99283e-09 1.74282e-09 -2.22167 -0.733487 0.20892 -2.03217e-16 0.0 -3.88251e-19 -13.7094 -7.2539 -0.252913 0.00504746 6.2745 0.0863492 -2.31409 0.940166 0.293791 2.03217e-16 0.0 3.88251e-19 5.45374 -19.4244 -13.4194 -0.0222792 12.9026 -0.768754 11.4684 -19.1415 20.2799
